<svg width="178" height="30" viewBox="0 0 178 30" fill="#fff" xmlns="http://www.w3.org/2000/svg">
<path clip-rule="evenodd" d="M61.8633 27.8571V25.7357H91.8633V27.8571C91.8633 29.0357 90.9651 30 89.8473 30H63.8792C62.7615 30 61.8633 29.0357 61.8633 27.8571ZM91.8633 12.8571C91.8633 -4.28571 61.8633 -4.28571 61.8633 12.8571H91.8633ZM61.9032 17.1643H91.8433V21.45H61.9032V17.1643ZM107.098 6.30859H115.809V1.5625H92.6445V6.30859H101.238V30H107.098V6.30859ZM117.539 30H123.398V1.5625H117.539V30ZM138.957 6.30859H147.668V1.5625H124.504V6.30859H133.098V30H138.957V6.30859ZM8.18359 24.1406H18.457L20.4297 30H21.3164H26.6602H27.1758V19.9805H32.3125C35.0842 19.9805 37.3589 19.4396 39.1367 18.3578V30H44.9961V19.9805H50.1328C53.5052 19.9805 56.1419 19.1797 58.043 17.5781C59.957 15.9635 60.9141 13.763 60.9141 10.9766C60.9141 9.14062 60.4779 7.50651 59.6055 6.07422C58.7331 4.62891 57.4831 3.51562 55.8555 2.73438C54.2409 1.95312 52.3659 1.5625 50.2305 1.5625H39.1367V3.35096C38.7911 3.12649 38.4239 2.92096 38.0352 2.73438C36.4206 1.95312 34.5456 1.5625 32.4102 1.5625H21.3164V15.7239L16.0156 1.5625H10.5859L0 30H6.23047L8.18359 24.1406ZM16.875 19.3945H9.76562L13.3008 8.75L16.875 19.3945ZM32.4102 15.2344H27.1758V6.30859H32.5469C33.9922 6.33464 35.125 6.77734 35.9453 7.63672C36.7656 8.49609 37.1758 9.6224 37.1758 11.0156C37.1758 12.3698 36.7656 13.4115 35.9453 14.1406C35.138 14.8698 33.9596 15.2344 32.4102 15.2344ZM50.2305 15.2344H44.9961V6.30859H50.3672C51.8125 6.33464 52.9453 6.77734 53.7656 7.63672C54.5859 8.49609 54.9961 9.6224 54.9961 11.0156C54.9961 12.3698 54.5859 13.4115 53.7656 14.1406C52.9583 14.8698 51.7799 15.2344 50.2305 15.2344ZM147.863 25.7357V27.8571C147.863 29.0357 148.761 30 149.879 30H175.847C176.965 30 177.863 29.0357 177.863 27.8571V25.7357H147.863ZM177.863 12.8571C177.863 -4.28571 147.863 -4.28571 147.863 12.8571H177.863ZM177.843 17.1643H147.903V21.45H177.843V17.1643Z"/>
</svg>
